<?xml version="1.0" encoding="UTF-8"?>
<svg width="20px" height="20px" viewBox="0 0 20 20" version="1.1" xmlns="http://www.w3.org/2000/svg" xmlns:xlink="http://www.w3.org/1999/xlink">
    <title>编组</title>
    <g id="页面-1" stroke="none" stroke-width="1" fill="none" fill-rule="evenodd">
        <g id="历史记录—问答历史" transform="translate(-554, -235)">
            <g id="编组-3" transform="translate(554, 235)">
                <rect id="矩形" x="0" y="0" width="20" height="20" rx="4"></rect>
                <g id="编组">
                    <rect id="矩形" fill="var(--el-color-primary-light-9)" x="0" y="0" width="20" height="20" rx="4"></rect>
                    <g id="问答1" transform="translate(3, 3)" fill-rule="nonzero">
                        <rect id="矩形" fill="#000000" opacity="0" x="0" y="0" width="14" height="14"></rect>
                        <path d="M11.7427461,4.45469336 C11.5205781,4.45469336 11.3492012,4.63242773 11.3492012,4.84823828 C11.3492012,5.06400781 11.533293,5.24171484 11.7490352,5.24171484 C11.9649141,5.24171484 12.1425801,5.41944922 12.1425801,5.63525977 L12.1425801,10.008332 C12.1425801,10.2305 11.9649141,10.4018086 11.7490352,10.4018086 L11.3492012,10.4018086 C11.1270332,10.4018086 10.9556563,10.5796113 10.9556563,10.7953535 L10.9556563,11.4173555 L10.0480488,10.5161055 C9.97189648,10.4399531 9.87038281,10.4018086 9.76244336,10.4018086 L7.77586523,10.4018086 C7.55369727,10.4018086 7.38232031,10.5796113 7.38232031,10.7953535 C7.38232031,11.0111641 7.56005469,11.1888984 7.77586523,11.1888984 L9.5974375,11.1888984 L11.057252,12.6613594 C11.1334727,12.7375801 11.2349863,12.7819453 11.3365,12.7819453 C11.3873594,12.7819453 11.438082,12.7692988 11.488873,12.7502266 C11.6348203,12.6867207 11.7364023,12.5471309 11.7364023,12.3821797 L11.7427598,11.1888984 L11.7490488,11.1888984 C12.4028379,11.1888984 12.9359727,10.6556953 12.9359727,9.99561719 L12.9359727,5.62890234 C12.9359727,4.98782813 12.4028242,4.45469336 11.7427461,4.45469336 Z M10.5495332,8.4152168 L10.5495332,3.25512305 C10.5495332,2.60140234 10.0163301,2.06188281 9.35625195,2.06188281 L2.22222656,2.06188281 C1.56850586,2.06188281 1.02901367,2.59504492 1.02901367,3.25512305 L1.02901367,8.40885938 C1.02901367,9.06264844 1.56214844,9.60214062 2.22222656,9.60214062 L2.22858398,9.60214062 L2.22222656,11.5887324 C2.22222656,11.753752 2.32380859,11.8997676 2.46975586,11.9568477 C2.52054688,11.9759199 2.56498047,11.9822773 2.61577148,11.9822773 C2.72364258,11.9822773 2.83154102,11.9377754 2.90769336,11.855334 L5.01489844,9.60214062 L9.35625195,9.60214062 C10.0163301,9.60214062 10.5495332,9.0689375 10.5495332,8.4152168 L10.5495332,8.4152168 Z M4.84987891,8.80876172 L4.84352148,8.80876172 C4.80548633,8.80876172 4.76736914,8.82147656 4.72929297,8.83412305 C4.71657813,8.84048047 4.70393164,8.84048047 4.6912168,8.84048047 C4.65945703,8.85319531 4.62775195,8.87855664 4.60234961,8.90391797 C4.58963477,8.91027539 4.57698828,8.91663281 4.57063086,8.92934766 C4.57063086,8.92934766 4.56427344,8.93570508 4.55791602,8.93570508 L3.0155918,10.5796113 L3.02194922,9.25938672 C3.02194922,9.24031445 3.03462305,9.22759961 3.03462305,9.2085957 C3.03462305,8.98642773 2.85692969,8.81505078 2.64111914,8.81505078 L2.22221289,8.81505078 C2.00644336,8.81505078 1.82870898,8.63738477 1.82870898,8.42157422 L1.82870898,3.25512305 C1.82870898,3.0393125 2.00644336,2.86157812 2.22221289,2.86157812 L9.36260938,2.86157812 C9.58477734,2.86157812 9.7561543,3.0393125 9.7561543,3.25512305 L9.7561543,8.40885938 C9.7561543,8.63102734 9.57841992,8.8024043 9.36260938,8.8024043 L4.84987891,8.8024043 L4.84987891,8.80876172 Z M7.29352148,5.40673437 L6.31605078,5.40673437 L6.31605078,4.42930469 C6.31605078,4.20082031 6.132,4.01039844 5.89714453,4.01039844 C5.66233008,4.01039844 5.47823828,4.19444922 5.47823828,4.42930469 L5.47823828,5.40673437 L4.50080859,5.40673437 C4.27232422,5.40673437 4.08190234,5.59078516 4.08190234,5.82564063 C4.08190234,6.06052344 4.26599414,6.24457422 4.50080859,6.24457422 L5.47823828,6.24457422 L5.47823828,7.21564648 C5.47823828,7.44410352 5.66233008,7.63455273 5.89714453,7.63455273 C6.13198633,7.63455273 6.31605078,7.45046094 6.31605078,7.21564648 L6.31605078,6.2382168 L7.29352148,6.2382168 C7.52197852,6.2382168 7.71242773,6.05416602 7.71242773,5.81931055 C7.71242773,5.58445508 7.52197852,5.40673437 7.29352148,5.40673437 Z" id="形状" fill="currentColor"></path>
                    </g>
                </g>
            </g>
        </g>
    </g>
</svg>