<?xml version="1.0" encoding="UTF-8"?>
<svg width="34px" height="34px" viewBox="0 0 34 34" version="1.1" xmlns="http://www.w3.org/2000/svg" xmlns:xlink="http://www.w3.org/1999/xlink">
    <title>椭圆形</title>
    <g id="页面-1" stroke="none" stroke-width="1" fill="none" fill-rule="evenodd">
        <g id="文档解读—知识库多个文档" transform="translate(-1331, -707)">
            <g id="编组-4" transform="translate(1331, 707)">
                <circle id="椭圆形" cx="17" cy="17" r="17"></circle>
                <g id="编组-3">
                    <circle id="椭圆形" fill="currentColor" cx="17" cy="17" r="17"></circle>
                    <g id="发布色块" transform="translate(7, 7)" fill-rule="nonzero">
                        <rect id="矩形" fill="#000000" opacity="0" x="0" y="0" width="20" height="20"></rect>
                        <path d="M6.75013079,12.2925441 L1.56197374,9.11716037 C1.37355023,9.00183677 1.31429104,8.75560108 1.42961464,8.56717757 C1.47503163,8.49297223 1.54340379,8.4355975 1.62436636,8.40375104 L17.9872982,1.96742451 C18.1928798,1.88655941 18.4250907,1.98766209 18.5059558,2.19324367 C18.5337597,2.26392896 18.540863,2.34106966 18.5264348,2.41564375 L15.6623466,17.2190714 C15.6203835,17.4359632 15.4105402,17.577771 15.1936484,17.5358079 C15.143665,17.5261374 15.0959872,17.5070141 15.0531749,17.4794647 L7.97191364,12.9227253 L7.97191364,12.9227253 L14.7456031,5.5752281 L6.75013079,12.2925441 Z M8.02454429,14.5935125 L8.02454429,17.8729704 C8.02454429,17.9834273 8.11408734,18.0729704 8.22454429,18.0729704 C8.27827663,18.0729704 8.32974891,18.0513496 8.36736398,18.0129794 L10.3614964,15.9788157 C10.4388212,15.8999386 10.4375629,15.7733118 10.3586857,15.6959869 C10.3483337,15.6858386 10.3369089,15.6768459 10.3246129,15.6691673 L8.33048054,14.4238731 C8.23679131,14.3653661 8.11341191,14.393887 8.05490493,14.4875762 C8.03506388,14.5193484 8.02454429,14.556054 8.02454429,14.5935125 Z" id="形状" fill="#FFFFFF"></path>
                    </g>
                </g>
            </g>
        </g>
    </g>
</svg>